<?xml version="1.0" standalone="no"?>
<!DOCTYPE svg PUBLIC "-//W3C//DTD SVG 20010904//EN"
 "http://www.w3.org/TR/2001/REC-SVG-20010904/DTD/svg10.dtd">
<svg version="1.0" xmlns="http://www.w3.org/2000/svg"
 width="300.000000pt" height="300.000000pt" viewBox="0 0 300.000000 300.000000"
 preserveAspectRatio="xMidYMid meet">
<metadata>
Created by potrace 1.11, written by Peter Selinger 2001-2013
</metadata>
<g transform="translate(0.000000,300.000000) scale(0.100000,-0.100000)"
fill="#000000" stroke="none">
<path d="M1349 2995 c-3 -2 -26 -6 -53 -10 -84 -10 -188 -34 -261 -61 -38 -14
-84 -29 -100 -34 -60 -19 -212 -102 -305 -168 -200 -142 -386 -364 -489 -587
-57 -121 -113 -307 -129 -427 -17 -129 -5 -409 24 -538 45 -206 162 -446 301
-620 46 -56 178 -185 240 -233 182 -139 403 -243 600 -282 43 -8 92 -18 108
-21 47 -10 356 -13 405 -4 25 5 59 10 75 13 69 11 181 40 193 49 6 6 12 8 12
5 0 -12 213 84 288 129 264 159 452 362 587 632 41 82 98 237 109 292 3 14 12
61 22 105 39 192 18 554 -43 705 -3 8 -8 24 -10 34 -7 38 -77 192 -125 276
-83 143 -214 300 -344 408 -65 55 -194 138 -283 182 -78 40 -271 114 -271 105
0 -2 -19 3 -42 11 -23 8 -64 17 -92 20 -28 4 -55 9 -61 12 -10 6 -350 13 -356
7z"/>
</g>
</svg>
